# xmcd
#
# Track frame offsets: 
#        150
#        14985
#        31068
#        48541
#        61885
#        83883
#        105478
#        122902
#        141058
#        158700
#        176233
#        198125
#        214943
#        232929
#
# Disc length: 3348 seconds
#
# Revision: 2
# Processed by: cddbd v1.5.2PL0 Copyright (c) Steve Scherf et al.
# Submitted via: ExactAudioCopy v1.0b3
#
DISCID=be0d120e
DTITLE=Lady Antebellum - own the night
DYEAR=2011
DGENRE=Pop
TTITLE0=We Owned the Night
TTITLE1=Just a Kiss
TTITLE2=Dancin' Away with My Heart
TTITLE3=Friday Night
TTITLE4=When You Were Mine
TTITLE5=Cold as Stone
TTITLE6=Singing Me Home
TTITLE7=Wanted You More
TTITLE8=As You Turn Away
TTITLE9=Love I've Found in You
TTITLE10=Somewhere Love Remains
TTITLE11=Heart of the World
TTITLE12=Need You Now [Acoustic]
TTITLE13=American Honey [iTunes Session version]
EXTD=YEAR: 2011
EXTT0=
EXTT1=
EXTT2=
EXTT3=
EXTT4=
EXTT5=
EXTT6=
EXTT7=
EXTT8=
EXTT9=
EXTT10=
EXTT11=
EXTT12=
EXTT13=
PLAYORDER=
